<svg xmlns="http://www.w3.org/2000/svg" xmlns:xlink="http://www.w3.org/1999/xlink" width="500" zoomAndPan="magnify" viewBox="0 0 375 374.999991" height="500" preserveAspectRatio="xMidYMid meet" version="1.0"><defs><clipPath id="5aa4bcef30"><path d="M 104 257 L 227 257 L 227 351 L 104 351 Z M 104 257 " clip-rule="nonzero"/></clipPath><clipPath id="2eae5c22d0"><path d="M 104.589844 281.179688 L 210.996094 257.480469 L 226.425781 326.761719 L 120.019531 350.460938 Z M 104.589844 281.179688 " clip-rule="nonzero"/></clipPath><clipPath id="1e3d772ed9"><path d="M 104 257 L 227 257 L 227 351 L 104 351 Z M 104 257 " clip-rule="nonzero"/></clipPath><clipPath id="0c6db5f6f8"><path d="M 104.589844 281.179688 L 210.996094 257.480469 L 226.480469 327 L 120.074219 350.699219 Z M 104.589844 281.179688 " clip-rule="nonzero"/></clipPath><clipPath id="9c7b95d225"><path d="M 104.59375 281.179688 L 210.992188 257.480469 L 226.421875 326.757812 L 120.023438 350.453125 Z M 104.59375 281.179688 " clip-rule="nonzero"/></clipPath><clipPath id="4c1b8c5a42"><path d="M 117 316 L 240 316 L 240 375 L 117 375 Z M 117 316 " clip-rule="nonzero"/></clipPath><clipPath id="97c2e48b8c"><path d="M 117.738281 340.210938 L 224.144531 316.507812 L 239.574219 385.792969 L 133.167969 409.492188 Z M 117.738281 340.210938 " clip-rule="nonzero"/></clipPath><clipPath id="6ce0feb80c"><path d="M 117 316 L 240 316 L 240 375 L 117 375 Z M 117 316 " clip-rule="nonzero"/></clipPath><clipPath id="c965d830ac"><path d="M 117.738281 340.210938 L 224.144531 316.507812 L 239.628906 386.027344 L 133.21875 409.730469 Z M 117.738281 340.210938 " clip-rule="nonzero"/></clipPath><clipPath id="642b3d551e"><path d="M 117.742188 340.207031 L 224.140625 316.511719 L 239.566406 385.785156 L 133.171875 409.484375 Z M 117.742188 340.207031 " clip-rule="nonzero"/></clipPath><clipPath id="04cff68faf"><path d="M 245.75 122.273438 L 344.1875 122.273438 L 344.1875 234.9375 L 245.75 234.9375 Z M 245.75 122.273438 " clip-rule="nonzero"/></clipPath><clipPath id="655935a579"><path d="M 344.1875 178.523438 L 245.75 234.773438 L 245.75 122.273438 Z M 344.1875 178.523438 " clip-rule="nonzero"/></clipPath><clipPath id="e9e4ea175f"><path d="M 245.9375 122.273438 L 344.1875 122.273438 L 344.1875 234.773438 L 245.9375 234.773438 Z M 245.9375 122.273438 " clip-rule="nonzero"/></clipPath><clipPath id="ffe176b138"><path d="M 344.1875 178.523438 L 245.75 234.773438 L 245.75 122.273438 Z M 344.1875 178.523438 " clip-rule="nonzero"/></clipPath><clipPath id="27f0084992"><path d="M 5.808594 37.5 L 287.855469 37.5 L 287.855469 319.546875 L 5.808594 319.546875 Z M 5.808594 37.5 " clip-rule="nonzero"/></clipPath><clipPath id="952dfe268f"><path d="M 146.832031 37.5 C 68.945312 37.5 5.808594 100.636719 5.808594 178.523438 C 5.808594 256.40625 68.945312 319.546875 146.832031 319.546875 C 224.714844 319.546875 287.855469 256.40625 287.855469 178.523438 C 287.855469 100.636719 224.714844 37.5 146.832031 37.5 Z M 146.832031 37.5 " clip-rule="nonzero"/></clipPath><clipPath id="5172a5d921"><path d="M 5.808594 37.5 L 287.808594 37.5 L 287.808594 319.5 L 5.808594 319.5 Z M 5.808594 37.5 " clip-rule="nonzero"/></clipPath><clipPath id="b47d488d20"><path d="M 146.828125 37.5 C 68.945312 37.5 5.808594 100.636719 5.808594 178.515625 C 5.808594 256.398438 68.945312 319.535156 146.828125 319.535156 C 224.707031 319.535156 287.84375 256.398438 287.84375 178.515625 C 287.84375 100.636719 224.707031 37.5 146.828125 37.5 Z M 146.828125 37.5 " clip-rule="nonzero"/></clipPath><clipPath id="9c46b9ea77"><path d="M 58.125 89.816406 L 235.539062 89.816406 L 235.539062 267.230469 L 58.125 267.230469 Z M 58.125 89.816406 " clip-rule="nonzero"/></clipPath><clipPath id="24745efdb1"><path d="M 146.832031 89.816406 C 97.839844 89.816406 58.125 129.53125 58.125 178.523438 C 58.125 227.515625 97.839844 267.230469 146.832031 267.230469 C 195.824219 267.230469 235.539062 227.515625 235.539062 178.523438 C 235.539062 129.53125 195.824219 89.816406 146.832031 89.816406 Z M 146.832031 89.816406 " clip-rule="nonzero"/></clipPath><clipPath id="7e640ee0f1"><path d="M 58.125 89.816406 L 235.535156 89.816406 L 235.535156 267.226562 L 58.125 267.226562 Z M 58.125 89.816406 " clip-rule="nonzero"/></clipPath><clipPath id="8c7cb6c6ef"><path d="M 146.828125 89.816406 C 97.839844 89.816406 58.125 129.53125 58.125 178.519531 C 58.125 227.511719 97.839844 267.226562 146.828125 267.226562 C 195.820312 267.226562 235.535156 227.511719 235.535156 178.519531 C 235.535156 129.53125 195.820312 89.816406 146.828125 89.816406 Z M 146.828125 89.816406 " clip-rule="nonzero"/></clipPath><clipPath id="23a513382f"><path d="M 129.925781 133.371094 L 214.234375 133.371094 L 214.234375 217.679688 L 129.925781 217.679688 Z M 129.925781 133.371094 " clip-rule="nonzero"/></clipPath><clipPath id="57d010d22a"><path d="M 172.082031 133.371094 C 148.800781 133.371094 129.925781 152.246094 129.925781 175.527344 C 129.925781 198.808594 148.800781 217.679688 172.082031 217.679688 C 195.363281 217.679688 214.234375 198.808594 214.234375 175.527344 C 214.234375 152.246094 195.363281 133.371094 172.082031 133.371094 Z M 172.082031 133.371094 " clip-rule="nonzero"/></clipPath><clipPath id="e1139be502"><path d="M 129.925781 133.371094 L 213.925781 133.371094 L 213.925781 217.371094 L 129.925781 217.371094 Z M 129.925781 133.371094 " clip-rule="nonzero"/></clipPath><clipPath id="229cfc1492"><path d="M 172.078125 133.371094 C 148.800781 133.371094 129.925781 152.246094 129.925781 175.523438 C 129.925781 198.804688 148.800781 217.675781 172.078125 217.675781 C 195.359375 217.675781 214.230469 198.804688 214.230469 175.523438 C 214.230469 152.246094 195.359375 133.371094 172.078125 133.371094 Z M 172.078125 133.371094 " clip-rule="nonzero"/></clipPath></defs><g clip-path="url(#5aa4bcef30)"><g clip-path="url(#2eae5c22d0)"><path fill="#637d96" d="M 104.589844 281.179688 L 210.949219 257.492188 L 226.378906 326.773438 L 120.019531 350.460938 Z M 104.589844 281.179688 " fill-opacity="1" fill-rule="nonzero"/></g></g><g clip-path="url(#1e3d772ed9)"><g clip-path="url(#0c6db5f6f8)"><g clip-path="url(#9c7b95d225)"><path stroke-linecap="butt" transform="matrix(0.709381, -0.157997, 0.157997, 0.709381, 104.593805, 281.178762)" fill="none" stroke-linejoin="miter" d="M -0.000350628 0.00122722 L 149.987763 -0.00085503 L 149.98755 97.657919 L 0.00060483 97.654755 Z M -0.000350628 0.00122722 " stroke="#000000" stroke-width="8.255781" stroke-opacity="1" stroke-miterlimit="4"/></g></g></g><g clip-path="url(#4c1b8c5a42)"><g clip-path="url(#97c2e48b8c)"><path fill="#ffffff" d="M 117.738281 340.210938 L 224.09375 316.519531 L 239.527344 385.800781 L 133.167969 409.492188 Z M 117.738281 340.210938 " fill-opacity="1" fill-rule="nonzero"/></g></g><g clip-path="url(#6ce0feb80c)"><g clip-path="url(#c965d830ac)"><g clip-path="url(#642b3d551e)"><path stroke-linecap="butt" transform="matrix(0.709381, -0.157997, 0.157997, 0.709381, 117.741186, 340.208181)" fill="none" stroke-linejoin="miter" d="M 0.00168846 -0.00124452 L 149.988634 0.00191954 L 149.984343 97.654279 L 0.00147543 97.657529 Z M 0.00168846 -0.00124452 " stroke="#000000" stroke-width="8.255781" stroke-opacity="1" stroke-miterlimit="4"/></g></g></g><g clip-path="url(#04cff68faf)"><g clip-path="url(#655935a579)"><path fill="#ffbd59" d="M 344.1875 122.273438 L 344.1875 234.9375 L 245.75 234.9375 L 245.75 122.273438 Z M 344.1875 122.273438 " fill-opacity="1" fill-rule="nonzero"/></g></g><g clip-path="url(#e9e4ea175f)"><g clip-path="url(#ffe176b138)"><path stroke-linecap="butt" transform="matrix(0, 0.75, -0.75, 0, 344.186262, 122.272528)" fill="none" stroke-linejoin="miter" d="M 75.001218 -0.0016508 L 150.001223 131.248358 L 0.00121271 131.248358 Z M 75.001218 -0.0016508 " stroke="#000000" stroke-width="8" stroke-opacity="1" stroke-miterlimit="4"/></g></g><g clip-path="url(#27f0084992)"><g clip-path="url(#952dfe268f)"><path fill="#637d96" d="M 5.808594 37.5 L 287.855469 37.5 L 287.855469 319.546875 L 5.808594 319.546875 Z M 5.808594 37.5 " fill-opacity="1" fill-rule="nonzero"/></g></g><g clip-path="url(#5172a5d921)"><g clip-path="url(#b47d488d20)"><path stroke-linecap="butt" transform="matrix(0.75, 0, 0, 0.75, 5.809145, 37.499998)" fill="none" stroke-linejoin="miter" d="M 188.025332 0.00000328333 C 84.181568 0.00000328333 -0.000734465 84.182306 -0.000734465 188.020861 C -0.000734465 291.864624 84.181568 376.046927 188.025332 376.046927 C 291.863887 376.046927 376.046189 291.864624 376.046189 188.020861 C 376.046189 84.182306 291.863887 0.00000328333 188.025332 0.00000328333 Z M 188.025332 0.00000328333 " stroke="#000000" stroke-width="8" stroke-opacity="1" stroke-miterlimit="4"/></g></g><g clip-path="url(#9c46b9ea77)"><g clip-path="url(#24745efdb1)"><path fill="#ffffff" d="M 58.125 89.816406 L 235.539062 89.816406 L 235.539062 267.230469 L 58.125 267.230469 Z M 58.125 89.816406 " fill-opacity="1" fill-rule="nonzero"/></g></g><g clip-path="url(#7e640ee0f1)"><g clip-path="url(#8c7cb6c6ef)"><path stroke-linecap="butt" transform="matrix(0.75, 0, 0, 0.75, 58.124187, 89.815043)" fill="none" stroke-linejoin="miter" d="M 118.271925 0.0018178 C 52.954212 0.0018178 0.00108389 52.954946 0.00108389 118.272659 C 0.00108389 183.59558 52.954212 236.548708 118.271925 236.548708 C 183.594846 236.548708 236.547974 183.59558 236.547974 118.272659 C 236.547974 52.954946 183.594846 0.0018178 118.271925 0.0018178 Z M 118.271925 0.0018178 " stroke="#000000" stroke-width="8" stroke-opacity="1" stroke-miterlimit="4"/></g></g><g clip-path="url(#23a513382f)"><g clip-path="url(#57d010d22a)"><path fill="#000000" d="M 129.925781 133.371094 L 214.234375 133.371094 L 214.234375 217.679688 L 129.925781 217.679688 Z M 129.925781 133.371094 " fill-opacity="1" fill-rule="nonzero"/></g></g><g clip-path="url(#e1139be502)"><g clip-path="url(#229cfc1492)"><path stroke-linecap="butt" transform="matrix(0.75, 0, 0, 0.75, 129.926994, 133.372095)" fill="none" stroke-linejoin="miter" d="M 56.201512 -0.00133532 C 25.165052 -0.00133532 -0.00161642 25.165333 -0.00161642 56.201793 C -0.00161642 87.243462 25.165052 112.404922 56.201512 112.404922 C 87.243181 112.404922 112.404641 87.243462 112.404641 56.201793 C 112.404641 25.165333 87.243181 -0.00133532 56.201512 -0.00133532 Z M 56.201512 -0.00133532 " stroke="#000000" stroke-width="8" stroke-opacity="1" stroke-miterlimit="4"/></g></g></svg>